<svg xmlns="http://www.w3.org/2000/svg" viewBox="0 0 512 512" fill="none" width="512" height="512" role="img" aria-label="Zero-Trust AES-256 Security Vault">
  <defs>
    <linearGradient id="shieldGrad" x1="0%" y1="0%" x2="100%" y2="100%">
      <stop offset="0%" stop-color="#00FF41"/>
      <stop offset="50%" stop-color="#00F3FF"/>
      <stop offset="100%" stop-color="#3b82f6"/>
    </linearGradient>

    <linearGradient id="shieldInner" x1="0%" y1="0%" x2="0%" y2="100%">
      <stop offset="0%" stop-color="#0d1829"/>
      <stop offset="100%" stop-color="#030712"/>
    </linearGradient>

    <filter id="glowShield" x="-20%" y="-20%" width="140%" height="140%">
      <feGaussianBlur stdDeviation="10" result="b"/>
      <feMerge>
        <feMergeNode in="b"/>
        <feMergeNode in="SourceGraphic"/>
      </feMerge>
    </filter>
  </defs>

  <!-- Outer Shield Path -->
  <path d="M 256 36 L 436 96 V 264 C 436 376 356 456 256 484 C 156 456 76 376 76 264 V 96 Z" fill="url(#shieldInner)" stroke="url(#shieldGrad)" stroke-width="6" filter="url(#glowShield)"/>
  
  <!-- Inner Circuit Shield -->
  <path d="M 256 64 L 406 114 V 254 C 406 348 338 418 256 444 C 174 418 106 348 106 254 V 114 Z" fill="none" stroke="#00FF41" stroke-width="1.5" opacity="0.3" stroke-dasharray="6 4"/>

  <!-- Centered AES-256 Enclave Lock -->
  <rect x="186" y="210" width="140" height="110" rx="20" fill="#050b14" stroke="#00F3FF" stroke-width="4" filter="url(#glowShield)"/>
  <path d="M 216 210 V 165 C 216 142 234 124 256 124 C 278 124 296 142 296 165 V 210" fill="none" stroke="#00FF41" stroke-width="5" stroke-linecap="round"/>
  
  <!-- Keyhole & Biometric Stream -->
  <circle cx="256" cy="255" r="12" fill="#39FF14" filter="url(#glowShield)"/>
  <path d="M 256 267 V 290" stroke="#39FF14" stroke-width="4" stroke-linecap="round"/>

  <!-- Text Badges -->
  <text x="256" y="365" font-family="'JetBrains Mono', monospace" font-size="17" font-weight="700" fill="#00FF41" text-anchor="middle" letter-spacing="2">ZERO-TRUST VAULT</text>
  <text x="256" y="390" font-family="'JetBrains Mono', monospace" font-size="12" font-weight="500" fill="#94A3B8" text-anchor="middle" letter-spacing="1">AES-256 MACHINE ENCRYPTED</text>
</svg>